<svg
 xmlns="http://www.w3.org/2000/svg"
 xmlns:xlink="http://www.w3.org/1999/xlink"
 width="15px" height="15px">
<path fill-rule="evenodd"  fill="rgb(0, 0, 0)"
 d="M14.129,13.533 L12.697,14.965 L8.728,10.995 C7.844,11.601 6.776,11.958 5.624,11.958 C2.586,11.958 0.124,9.496 0.124,6.458 C0.124,3.421 2.586,0.958 5.624,0.958 C8.661,0.958 11.123,3.421 11.123,6.458 C11.123,7.611 10.766,8.679 10.160,9.563 L14.129,13.533 ZM5.624,2.458 C3.415,2.458 1.624,4.249 1.624,6.458 C1.624,8.667 3.415,10.459 5.624,10.459 C7.833,10.459 9.623,8.667 9.623,6.458 C9.623,4.249 7.833,2.458 5.624,2.458 Z"/>
</svg>
