<svg
 xmlns="http://www.w3.org/2000/svg"
 xmlns:xlink="http://www.w3.org/1999/xlink"
 width="18px" height="18px">
<path fill-rule="evenodd"  fill="rgb(196, 213, 232)"
 d="M16.000,17.998 L11.000,17.998 L11.000,15.998 L16.000,15.998 L16.000,10.998 L18.000,10.998 L18.000,15.998 L18.000,17.998 L16.000,17.998 ZM16.000,1.998 L11.000,1.998 L11.000,-0.002 L16.000,-0.002 L18.000,-0.002 L18.000,1.998 L18.000,6.998 L16.000,6.998 L16.000,1.998 ZM-0.000,17.998 L-0.000,15.998 L-0.000,10.998 L2.000,10.998 L2.000,15.998 L7.000,15.998 L7.000,17.998 L2.000,17.998 L-0.000,17.998 ZM2.000,6.998 L-0.000,6.998 L-0.000,1.998 L-0.000,-0.002 L2.000,-0.002 L7.000,-0.002 L7.000,1.998 L2.000,1.998 L2.000,6.998 Z"/>
</svg>
