<svg
 xmlns="http://www.w3.org/2000/svg"
 xmlns:xlink="http://www.w3.org/1999/xlink"
 width="14px" height="14px">
<path fill-rule="evenodd"  fill="rgb(0, 0, 0)"
 d="M-0.000,13.999 L-0.000,3.999 L4.000,3.999 C4.000,1.789 5.343,-0.001 7.000,-0.001 C8.657,-0.001 10.000,1.789 10.000,3.999 L14.000,3.999 L14.000,13.999 L-0.000,13.999 ZM7.000,1.290 C6.261,1.290 5.663,2.503 5.663,3.999 L8.337,3.999 C8.337,2.503 7.738,1.290 7.000,1.290 ZM12.000,5.999 L9.584,5.999 L7.895,5.999 L6.105,5.999 L4.416,5.999 L2.000,5.999 L2.000,11.999 L12.000,11.999 L12.000,5.999 Z"/>
</svg>
