<svg
 xmlns="http://www.w3.org/2000/svg"
 xmlns:xlink="http://www.w3.org/1999/xlink"
 width="14px" height="20px">
<path fill-rule="evenodd"  fill="rgb(0, 0, 0)"
 d="M-0.000,20.000 L-0.000,6.000 L3.000,6.000 L3.000,4.000 C3.000,1.791 4.791,-0.000 7.000,-0.000 C9.209,-0.000 11.000,1.791 11.000,4.000 L11.000,6.000 L14.000,6.000 L14.000,20.000 L-0.000,20.000 ZM9.000,4.000 C9.000,2.895 8.105,2.000 7.000,2.000 C5.895,2.000 5.000,2.895 5.000,4.000 L5.000,6.000 L9.000,6.000 L9.000,4.000 ZM12.000,8.000 L11.000,8.000 L3.000,8.000 L2.000,8.000 L2.000,18.000 L12.000,18.000 L12.000,8.000 ZM7.000,11.000 C8.105,11.000 9.000,11.895 9.000,13.000 C9.000,14.104 8.105,15.000 7.000,15.000 C5.895,15.000 5.000,14.104 5.000,13.000 C5.000,11.895 5.895,11.000 7.000,11.000 Z"/>
</svg>
