<svg xmlns="http://www.w3.org/2000/svg" width="192" height="59">
    <path fill-rule="evenodd" d="M178.589 25.932v9.765h-1.707V22.603s11.214 8.651 13.408 10.268v-9.764H192v13.131s-11.217-8.692-13.411-10.306zm-21.731 10.317c-4.231 0-7.675-3.075-7.675-6.853 0-3.781 3.444-6.854 7.675-6.854 4.232 0 7.679 3.073 7.679 6.854 0 3.778-3.447 6.853-7.679 6.853zm0-12.131c-3.29 0-5.966 2.447-5.966 5.278 0 2.831 2.676 5.276 5.966 5.276 3.291 0 5.967-2.445 5.967-5.276s-2.676-5.278-5.967-5.278zm-7.461 29.778h-3.558v1.707h3.163v.694h-3.163v1.765h3.697v.693h-4.453v-5.55h4.314v.691zm-13.506-.691h4.314v.691h-3.562v1.707h3.167v.694h-3.167v1.765h3.701v.693h-4.453v-5.55zm-4.021-24.701s.208.035.208.037c1.854.301 5.309.682 5.309 3.809 0 2.279-2.245 3.696-5.858 3.696-2.395 0-4.73-.95-6.092-2.48l1.232-1.114c.829.93 2.544 2.084 4.86 2.084 1.939 0 4.2-.691 4.2-2.186 0-1.259-1.028-1.875-3.926-2.349l-.211-.035c-1.791-.309-5.116-.879-5.116-3.784 0-1.933 2.118-3.393 4.949-3.434l.106-.001h.01v.005c2.033.025 3.861.714 4.909 1.863l-1.223 1.128c-.737-.808-2.167-1.434-3.743-1.444-1.793.017-3.35.952-3.35 1.883 0 1.38 1.767 1.983 3.736 2.322zm-9.542-22.83L125.43.929h-2.961V.242h4.22l-3.782 5.773-.579-.341zm-2.818 53.077h-.752V53.9h-2.216v-.695h5.183v.695h-2.215v4.851zm-3.626-52.714c-1.283 0-2.326-.825-2.326-1.836 0-.612.38-1.171 1.018-1.514-.423-.293-.67-.706-.67-1.153 0-.847.885-1.538 1.978-1.538 1.092 0 1.982.691 1.982 1.538 0 .447-.246.86-.672 1.153.637.343 1.015.902 1.015 1.514 0 1.011-1.04 1.836-2.325 1.836zm-.003-5.385c-.673 0-1.222.396-1.222.882 0 .489.549.884 1.222.884.675 0 1.225-.395 1.225-.884 0-.486-.55-.882-1.225-.882zm.003 2.37c-.868 0-1.575.529-1.575 1.182 0 .651.707 1.183 1.575 1.183.87 0 1.576-.532 1.576-1.183 0-.653-.706-1.182-1.576-1.182zM110.6 58.999c-1.087 0-2.148-.43-2.77-1.128l.563-.505c.376.423 1.155.946 2.207.946.884 0 1.909-.316 1.909-.993 0-.572-.466-.851-1.783-1.067l-.095-.018c-.812-.14-2.33-.397-2.33-1.719 0-.873.967-1.542 2.253-1.558l.051-.002v.003c.926.011 1.758.324 2.234.845l-.557.514c-.336-.37-.985-.653-1.7-.657-.816.008-1.526.435-1.526.855 0 .628.803.903 1.702 1.056l.095.016c.842.138 2.41.313 2.41 1.732 0 1.036-1.02 1.68-2.663 1.68zm.773-28.877h-8.343v5.575h-1.709v-12.59h1.709v5.441h8.343v-5.441h1.707v12.59h-1.707v-5.575zm-4.107-24.085c-1.285 0-2.325-.825-2.325-1.836 0-.612.378-1.171 1.015-1.514-.421-.293-.668-.706-.668-1.153 0-.847.889-1.538 1.978-1.538 1.092 0 1.983.691 1.983 1.538 0 .447-.248.86-.675 1.153.64.343 1.02.902 1.02 1.514 0 1.011-1.045 1.836-2.328 1.836zm-.004-5.385c-.672 0-1.222.396-1.222.882 0 .489.55.884 1.222.884.677 0 1.224-.395 1.224-.884 0-.486-.547-.882-1.224-.882zm.004 2.37c-.867 0-1.574.529-1.574 1.182 0 .651.707 1.183 1.574 1.183.87 0 1.575-.532 1.575-1.183 0-.653-.705-1.182-1.575-1.182zM99.633.936H98.54l.367-.694h1.451v5.55h-.725V.936zm-5.372 57.825v-.01h-2.769v-5.546h2.56l.209.002v-.002l.019.002h.01v.002c1.699.015 3.079 1.25 3.079 2.775 0 1.532-1.396 2.777-3.108 2.777zm.021-4.814h-2.037v4.055h1.904c.044 0 .084 0 .128-.002 1.326-.006 2.329-.874 2.329-2.016 0-1.14-1.001-2.027-2.324-2.037zm-10.156-18.25h-1.707V24.683H77.39v-1.576h11.76v1.576h-5.024v11.014zm2.399-29.905h-.752V.937h-2.218V.242h5.186v.695h-2.216v4.855zm-9.433-3.183l.094.018c.843.138 2.41.311 2.41 1.732 0 1.034-1.018 1.678-2.66 1.678-1.088 0-2.151-.431-2.769-1.127l.561-.504c.376.422 1.155.946 2.208.946.881 0 1.908-.316 1.908-.993 0-.573-.468-.851-1.784-1.069l-.096-.017c-.813-.139-2.328-.398-2.328-1.718 0-.876.965-1.542 2.251-1.56l.05-.002h.003v.003c.926.012 1.755.324 2.234.847l-.556.513C78.28.988 77.63.704 76.915.7c-.814.007-1.521.431-1.521.855 0 .626.8.903 1.698 1.054zM72.2 58.999c-1.865 0-3.384-1.354-3.384-3.022 0-1.667 1.519-3.022 3.384-3.022 1.867 0 3.385 1.355 3.385 3.022 0 1.668-1.518 3.022-3.385 3.022zm0-5.351c-1.45 0-2.631 1.08-2.631 2.329 0 1.247 1.181 2.326 2.631 2.326 1.452 0 2.632-1.079 2.632-2.326 0-1.249-1.18-2.329-2.632-2.329zM65.313.242h4.315v.694h-3.561v1.706h3.162v.695h-3.162V5.1h3.697v.692h-4.451V.242zm-4.698 31.576v3.879h-1.711v-3.889l-5.818-8.206 1.388-.999 5.288 7.454 5.293-7.462 1.39 1.002-5.83 8.221zM45.04 55.603h3.078v.694H45.04v2.452l-.032.006h-.753v-5.55h4.263v.691H45.04v1.707zm-5.777-28.752c-1.514 2.246-6.25 9.453-6.25 9.453s-4.735-7.369-6.249-9.675c-.421 1.733-1.468 6.071-2.254 9.296l-1.659-.413 2.699-11.109.464-1.8s5.893 8.885 7.017 10.606c1.142-1.694 7.006-10.606 7.006-10.606l3.099 12.895-1.66.411c-.802-3.297-1.817-7.429-2.213-9.058zM6.435 28.504s.208.035.208.037c1.853.301 5.308.682 5.308 3.809 0 2.279-2.245 3.696-5.857 3.696-2.396 0-4.731-.95-6.093-2.48l1.232-1.114c.83.93 2.542 2.084 4.861 2.084 1.937 0 4.199-.691 4.199-2.186 0-1.259-1.025-1.875-3.926-2.349l-.213-.035c-1.788-.309-5.116-.879-5.116-3.784 0-1.933 2.122-3.393 4.949-3.434l.108-.001h.01v.005c2.033.025 3.863.714 4.909 1.863l-1.223 1.128c-.735-.808-2.167-1.434-3.743-1.444-1.791.017-3.35.952-3.35 1.883 0 1.38 1.767 1.983 3.737 2.322zm30.051 24.451c1.864 0 3.385 1.355 3.385 3.022 0 1.668-1.521 3.022-3.385 3.022-1.865 0-3.384-1.354-3.384-3.022 0-1.667 1.519-3.022 3.384-3.022zm0 5.348c1.452 0 2.632-1.079 2.632-2.326 0-1.249-1.18-2.329-2.632-2.329-1.452 0-2.631 1.08-2.631 2.329 0 1.247 1.179 2.326 2.631 2.326zM63.93 53.7c.132.145.242.306.317.495.075.179.115.336.118.581v.014c-.003.246-.043.341-.118.521a1.622 1.622 0 0 1-.317.493c-.039.038-.085.067-.128.102.099.061.187.134.267.213.132.142.239.304.317.495.075.176.114.272.116.517v.014a1.64 1.64 0 0 1-.116.63 1.65 1.65 0 0 1-.317.492c-.304.314-.755.494-1.4.494h-2.647v-5.552h2.508c.646 0 1.097.18 1.4.491zm-3.165 4.369h1.9c.625 0 1.075-.241 1.075-.883 0-.64-.45-.884-1.075-.884h-1.9v1.767zm0-4.169v1.727h1.847c.576-.024.99-.26.99-.86 0-.63-.45-.867-1.076-.867h-1.761zm25.431-.695h.753v5.693s-4.945-3.739-5.912-4.451v4.308h-.754V53.049s4.944 3.678 5.913 4.389v-4.233zm44.141.49c.135.143.244.304.32.493.072.18.114.385.114.629 0 .002.002.002.002.006l-.002.008c0 .244-.042.45-.114.628-.076.186-.185.35-.32.492-.273.281-.672.449-1.218.478l-.6.005 2.342 2.321h-.983l-2.332-2.314-.377.003v2.307h-.737v-5.549h2.506c.648 0 1.095.179 1.399.493zm-3.179 2.067h1.78c.631 0 1.086-.257 1.086-.939 0-.681-.455-.939-1.086-.939h-1.78v1.878zm31.741-1.862h-2.216v4.851h-.756V53.9h-2.216v-.695h5.188v.695z"/>
</svg>
